HIERARCHY
ROOT SimulationBone
{
	OFFSET 0.000000 0.000000 0.000000
	CHANNELS 6 Xposition Yposition Zposition Zrotation Yrotation Xrotation 
	JOINT Hips
	{
		OFFSET 0.000000 0.000000 0.000000
		CHANNELS 6 Xposition Yposition Zposition Zrotation Yrotation Xrotation 
		JOINT RightUpLeg
		{
			OFFSET 0.103455 1.857827 10.548507
			CHANNELS 3 Zrotation Yrotation Xrotation
			JOINT RightLeg
			{
				OFFSET 43.500000 -0.000031 0.000008
				CHANNELS 3 Zrotation Yrotation Xrotation
				JOINT RightFoot
				{
					OFFSET 42.372192 0.000011 -0.000014
					CHANNELS 3 Zrotation Yrotation Xrotation
					JOINT RightToe
					{
						OFFSET 17.299997 -0.000002 0.000013
						CHANNELS 3 Zrotation Yrotation Xrotation
						End Site
						{
							OFFSET 0.000000 0.000000 0.000000
						}
					}
				}
			}
		}
		JOINT LeftUpLeg
		{
			OFFSET 0.103457 1.857826 -10.548499
			CHANNELS 3 Zrotation Yrotation Xrotation
			JOINT LeftLeg
			{
				OFFSET 43.500046 -0.000019 0.000015
				CHANNELS 3 Zrotation Yrotation Xrotation
				JOINT LeftFoot
				{
					OFFSET 42.372261 -0.000004 0.000013
					CHANNELS 3 Zrotation Yrotation Xrotation
					JOINT LeftToe
					{
						OFFSET 17.299992 -0.000006 0.000004
						CHANNELS 3 Zrotation Yrotation Xrotation
						End Site
						{
							OFFSET 0.000000 0.000000 0.000000
						}
					}
				}
			}
		}
		JOINT Spine
		{
			OFFSET 6.901968 -2.603730 -0.000002
			CHANNELS 3 Zrotation Yrotation Xrotation
			JOINT Spine1
			{
				OFFSET 12.588100 -0.000001 0.000009
				CHANNELS 3 Zrotation Yrotation Xrotation
				JOINT Spine2
				{
					OFFSET 12.343201 0.000005 -0.000005
					CHANNELS 3 Zrotation Yrotation Xrotation
					JOINT Neck
					{
						OFFSET 25.832893 -0.000008 -0.000006
						CHANNELS 3 Zrotation Yrotation Xrotation
						JOINT Head
						{
							OFFSET 11.766606 0.000005 0.000008
							CHANNELS 3 Zrotation Yrotation Xrotation
							End Site
							{
								OFFSET 0.000000 0.000000 0.000000
							}
						}
					}
					JOINT RightShoulder
					{
						OFFSET 19.745903 -1.480373 6.000100
						CHANNELS 3 Zrotation Yrotation Xrotation
						JOINT RightArm
						{
							OFFSET 11.284123 -0.000007 -0.000024
							CHANNELS 3 Zrotation Yrotation Xrotation
							JOINT RightForeArm
							{
								OFFSET 33.000053 0.000004 0.000036
								CHANNELS 3 Zrotation Yrotation Xrotation
								JOINT RightHand
								{
									OFFSET 25.200006 0.000021 -0.000003
									CHANNELS 3 Zrotation Yrotation Xrotation
									End Site
									{
										OFFSET 0.000000 0.000000 0.000000
									}
								}
							}
						}
					}
					JOINT LeftShoulder
					{
						OFFSET 19.746101 -1.480381 -6.000079
						CHANNELS 3 Zrotation Yrotation Xrotation
						JOINT LeftArm
						{
							OFFSET 11.284133 -0.000015 -0.000008
							CHANNELS 3 Zrotation Yrotation Xrotation
							JOINT LeftForeArm
							{
								OFFSET 33.000099 0.000016 0.000006
								CHANNELS 3 Zrotation Yrotation Xrotation
								JOINT LeftHand
								{
									OFFSET 25.199781 0.000142 0.000425
									CHANNELS 3 Zrotation Yrotation Xrotation
									End Site
									{
										OFFSET 0.000000 0.000000 0.000000
									}
								}
							}
						}
					}
				}
			}
		}
	}
}
MOTION
Frames: 9
Frame Time: 0.033333
-171.036878 0.000000 523.600586 0.000000 35.136551 0.000000 -0.576707 89.545464 1.032274 95.674297 4.724377 -179.084369 157.210328 -4.687000 168.965670 -25.785822 -1.061649 -1.153309 65.958604 0.735770 -0.511064 21.454560 0.003114 0.000016 -173.035234 -5.121199 -176.441736 -15.726287 4.173296 4.772084 80.806110 -3.825814 -1.653781 21.454551 -0.003092 -0.000001 9.114712 1.767166 1.357415 8.262920 3.433046 2.838713 7.944603 3.449979 2.817922 6.082178 13.123263 19.539855 -22.424428 -26.423348 32.986525 -158.150858 -71.616521 -23.857130 -25.682758 59.298159 9.718467 -50.865921 -16.648706 1.918654 2.386341 -3.396498 17.222578 168.744973 81.160556 -9.822032 -39.829493 -39.403604 -1.267182 -36.090839 16.278074 -1.443260 9.182448 4.914582 -44.270991 
-168.288426 0.000000 521.754274 0.000000 36.107324 0.000000 -0.470688 89.011971 1.225701 95.782882 5.467918 -179.313656 159.350868 -4.435698 170.879940 -11.615263 -3.480351 -1.026206 65.304525 0.993059 0.234776 21.454558 0.003112 0.000018 -169.948234 -6.105299 -176.346837 -14.575139 4.149563 4.819605 82.174921 -3.771187 -1.382004 21.454553 -0.003086 0.000001 9.127544 1.890801 1.359316 8.292383 3.679471 2.851992 7.973985 3.696486 2.829713 6.359647 12.581961 19.454563 -23.239264 -26.103950 32.920385 -159.224660 -71.701413 -22.751227 -26.406541 60.207182 8.114409 -46.816476 -16.923441 1.807200 2.763487 -5.020303 14.252071 162.571097 81.410548 -16.061979 -41.094704 -38.505919 3.840199 -37.684691 16.862451 -1.519870 9.264699 5.842922 -40.732530 
-165.550057 0.000000 519.852022 0.000000 37.099791 0.000000 -0.285136 88.307457 1.436792 95.967691 5.999314 -179.420880 158.557528 -4.107604 172.469257 -6.114496 -5.324402 -3.359799 69.308245 2.104604 -1.514411 21.454558 0.003108 0.000018 -166.851782 -6.865603 -175.664460 -13.813809 4.084238 4.544463 83.757681 -3.484186 -1.046793 21.454553 -0.003094 0.000000 9.117702 1.940045 1.274355 8.271495 3.784161 2.685493 7.953017 3.800172 2.662577 6.764081 12.361443 19.414370 -23.237904 -25.904527 32.733654 -160.874902 -71.885849 -21.051507 -26.939871 60.799646 7.080427 -41.765036 -16.481356 1.630109 3.818866 -6.970156 10.280168 156.999029 81.446113 -21.697040 -42.301318 -38.198434 8.290632 -38.971748 17.300905 -1.580959 9.063478 6.610936 -36.208117 
-162.805761 0.000000 517.893734 0.000000 38.131410 0.000000 -0.025295 87.485069 1.541882 96.493454 5.986656 -178.780673 157.667103 -2.504694 170.495756 -6.417028 -5.347608 -5.558312 71.677433 3.205455 -3.087098 21.454562 0.003110 0.000016 -163.840092 -7.113202 -174.980881 -14.035841 4.368955 4.699081 85.381647 -3.460634 -0.459966 21.454553 -0.003092 0.000000 9.144468 1.845782 1.033328 8.314921 3.612655 2.197613 7.996380 3.625712 2.175739 7.048576 12.662341 19.375186 -22.914460 -25.722602 32.530606 -163.017286 -72.062717 -18.846493 -27.636274 60.663473 7.001911 -36.046241 -15.453368 1.415970 5.910137 -8.193136 5.041016 156.548031 81.163664 -22.166962 -43.447096 -38.294473 11.362541 -40.211369 17.505049 -1.626765 9.420855 8.194638 -32.962083 
-160.049861 0.000000 515.873534 0.000000 39.217631 0.000000 0.323395 86.704063 1.660226 97.206148 5.657741 -178.060904 157.285118 -0.390701 166.717719 -10.335744 -3.456514 -6.198778 70.439823 4.614563 0.021598 21.454553 0.003104 0.000021 -161.135460 -7.377899 -173.491477 -15.240165 3.994667 4.536013 86.142503 -3.167159 0.463584 21.454553 -0.003088 0.000000 9.165141 1.645200 0.807625 8.345187 3.227954 1.732375 8.026697 3.238219 1.712837 7.559507 12.617480 19.263353 -23.042278 -25.234144 32.197525 -165.575383 -72.211861 -16.215264 -27.822287 60.318125 7.478670 -30.545169 -14.163977 1.212925 7.672246 -7.054727 2.582232 157.579007 80.863477 -21.139022 -43.916983 -39.507173 13.161243 -41.753988 18.104700 -1.707889 9.694899 8.967407 -29.350563 
-157.281448 0.000000 513.794353 0.000000 40.365023 0.000000 0.738472 86.128761 1.738402 97.565943 5.337513 -178.944255 156.691124 0.378798 164.029192 -16.044483 -1.890123 -5.959475 69.879706 5.889276 4.515757 21.454560 0.003099 0.000017 -158.969593 -7.171909 -173.389065 -16.702432 3.609796 4.538223 85.301392 -2.915353 1.770684 21.454550 -0.003089 0.000000 9.077517 1.336802 0.882811 8.165467 2.608084 1.858123 7.847186 2.619126 1.842324 7.543771 12.426909 18.997679 -22.477755 -24.874979 31.591206 -166.087101 -72.176938 -15.689388 -26.933439 60.549326 8.173711 -26.337145 -13.375838 1.085652 9.317354 -3.982007 4.878948 158.241959 80.666788 -20.477051 -43.267288 -41.882324 13.143908 -43.551103 18.727909 -1.799726 9.095841 9.381162 -27.929361 
-154.499593 0.000000 511.662156 0.000000 41.573935 0.000000 1.303278 85.844887 1.683605 97.681697 4.864957 178.461799 156.522965 0.297609 162.410424 -20.914441 -1.352294 -6.588200 68.746920 8.300157 10.153691 21.454558 0.003109 0.000017 -157.482961 -5.673203 -172.664491 -19.080543 3.229205 3.117486 82.768396 -1.718142 2.607463 21.454543 -0.003087 0.000000 8.914979 0.892676 1.175630 7.835922 1.703870 2.409158 7.517971 1.718249 2.398822 7.208036 11.997857 18.935344 -21.893155 -24.607280 31.228489 -164.152996 -71.398413 -17.684220 -23.641235 60.946447 9.327209 -24.622745 -13.025422 1.035777 10.037394 -1.044163 11.252321 159.172982 80.110455 -19.561061 -41.569614 -44.798606 12.145006 -45.690492 18.939952 -1.877130 8.444936 8.764182 -30.138380 
-151.712552 0.000000 509.483889 0.000000 42.843448 0.000000 1.897890 85.564377 1.506620 98.004686 4.073979 176.002736 156.213680 0.572997 163.208163 -26.780132 -1.313614 -8.275659 69.251035 9.824837 11.342385 21.454560 0.003096 0.000016 -157.338995 -3.304996 -169.415220 -24.140008 2.089526 0.375480 78.609426 0.592000 3.647195 21.454539 -0.003091 0.000001 8.809149 0.396606 1.306044 7.613727 0.706628 2.635328 7.295971 0.722387 2.631009 6.792197 10.926481 18.933622 -22.201306 -24.525143 31.187354 -161.529111 -70.207713 -20.399799 -18.223307 60.983016 12.717051 -24.716218 -13.112302 1.042775 9.837795 1.191493 18.079270 160.766001 79.557968 -17.972997 -39.705659 -48.207813 11.060516 -47.335127 19.300450 -1.951762 6.699161 6.144337 -35.137843 
-148.936329 0.000000 507.263066 0.000000 44.167040 0.000000 2.327131 85.323212 1.261486 98.641619 2.590933 174.361372 156.640526 1.494907 164.676298 -32.398456 -2.650836 -9.770009 73.857376 9.965757 10.106418 21.454558 0.003111 0.000017 -158.977434 -0.216508 -165.818183 -32.483734 0.176670 -1.838320 73.299671 2.734389 4.623248 21.454545 -0.003090 0.000000 8.821434 -0.234147 1.272763 7.624039 -0.551419 2.527354 7.306261 -0.536284 2.530626 6.187374 9.930847 18.722074 -22.971374 -24.832082 31.240128 -160.389412 -69.633581 -21.583145 -12.450405 60.785200 17.247998 -25.307309 -13.402172 1.070585 9.246585 2.242692 20.725716 166.004975 78.961310 -12.680075 -38.004880 -51.688204 10.162607 -47.779840 19.605233 -1.986072 4.764928 2.130074 -40.928389 
